<?xml version="1.0" standalone="no"?>
<!DOCTYPE svg PUBLIC "-//W3C//DTD SVG 20010904//EN"
 "http://www.w3.org/TR/2001/REC-SVG-20010904/DTD/svg10.dtd">
<svg version="1.0" xmlns="http://www.w3.org/2000/svg"
 width="348.000000pt" height="232.000000pt" viewBox="0 0 348.000000 232.000000"
 preserveAspectRatio="xMidYMid meet">

<g transform="translate(0.000000,232.000000) scale(0.100000,-0.100000)"
fill="#000000" stroke="none">
<path d="M262 2270 c-75 -18 -112 -100 -93 -210 12 -66 58 -280 71 -330 14
-52 42 -237 45 -300 2 -30 9 -93 15 -139 l13 -83 44 5 c30 3 54 14 73 32 22
21 113 75 126 75 6 0 -37 -94 -49 -109 -16 -19 -39 -98 -41 -141 -1 -36 -31
-80 -53 -80 -7 0 -13 -10 -13 -22 1 -21 2 -22 14 -5 18 23 36 22 36 -2 0 -11
4 -23 10 -26 5 -3 12 -29 16 -56 4 -31 16 -62 30 -79 13 -15 24 -32 24 -37 0
-20 48 -53 120 -84 65 -28 89 -32 188 -36 256 -11 481 91 585 264 20 34 37 69
37 77 0 8 4 17 9 20 15 10 22 162 10 213 -22 87 -91 173 -177 217 -17 9 -32
20 -32 25 0 6 -73 28 -125 36 -5 1 -12 3 -15 4 -40 18 -241 19 -306 2 -27 -7
-77 -26 -112 -42 -34 -16 -72 -31 -85 -33 -41 -8 -91 -29 -125 -53 -97 -65
-74 5 43 131 22 23 63 69 90 101 74 86 167 189 183 200 7 6 16 29 19 51 5 37
3 41 -28 57 -19 10 -45 24 -59 32 -14 8 -34 15 -46 15 -11 0 -31 11 -44 25
-13 14 -30 25 -38 25 -8 0 -33 9 -56 19 -46 22 -119 47 -184 64 -36 9 -45 8
-53 -4 -9 -14 -5 -211 5 -239 3 -8 7 -31 10 -50 2 -19 13 -80 25 -135 11 -55
23 -121 26 -148 2 -26 9 -56 15 -68 17 -31 7 -110 -19 -152 -13 -21 -25 -36
-28 -33 -2 2 -6 24 -9 48 -2 23 -7 63 -11 88 -10 74 -13 92 -19 155 -6 69 -36
221 -74 375 -20 84 -31 148 -32 190 -1 40 3 48 37 77 44 38 85 43 126 15 80
-53 99 -63 147 -77 29 -9 85 -30 125 -49 39 -18 85 -36 100 -40 35 -8 46 -17
110 -84 56 -59 97 -83 130 -76 12 2 35 7 50 9 15 3 37 10 48 15 10 6 28 14 38
19 19 10 31 5 31 -12 0 -5 -6 -7 -14 -4 -8 3 -20 -1 -28 -10 -11 -14 -10 -15
12 -8 14 4 48 14 75 22 28 8 59 19 70 23 21 9 75 22 110 25 11 2 54 7 95 11
113 13 485 11 550 -4 30 -7 64 -14 75 -16 25 -5 153 -45 180 -56 11 -5 40 -13
65 -19 58 -13 134 -46 150 -66 7 -8 18 -15 25 -15 7 0 18 -7 25 -15 7 -8 33
-25 57 -37 25 -13 50 -32 55 -43 5 -11 22 -26 37 -33 26 -12 141 -122 179
-172 48 -63 93 -133 120 -184 17 -30 39 -68 49 -83 11 -15 30 -64 43 -108 13
-44 30 -92 37 -107 7 -15 13 -48 13 -75 0 -43 -1 -45 -13 -28 -14 20 -47 115
-47 134 0 15 -60 111 -88 141 -12 14 -43 55 -67 91 -43 65 -121 149 -139 149
-5 0 -17 7 -27 16 -35 32 -176 64 -280 64 -123 0 -267 -35 -308 -74 -15 -14
-32 -26 -37 -26 -14 0 -56 -47 -82 -90 -12 -21 -25 -68 -31 -116 -16 -128 17
-238 101 -341 39 -47 147 -133 167 -133 4 0 36 -12 72 -26 57 -23 72 -26 139
-19 133 11 270 47 270 70 0 7 11 16 24 19 13 3 43 29 68 58 47 57 82 143 94
236 4 33 11 52 20 52 7 0 29 -35 50 -77 20 -43 42 -89 49 -103 8 -17 11 -64 9
-147 -1 -68 1 -123 6 -123 18 0 28 30 33 108 5 88 10 103 28 85 8 -8 8 -17 0
-31 -6 -11 -11 -58 -11 -104 -1 -53 -6 -92 -15 -108 -8 -14 -14 -38 -15 -53 0
-44 -16 -66 -42 -59 -21 5 -22 4 -9 -11 18 -23 -1 -47 -31 -39 -15 3 -19 2
-14 -7 4 -6 12 -9 17 -6 5 4 9 -3 9 -14 0 -26 -67 -121 -85 -121 -7 0 -15 -7
-19 -15 -3 -8 -13 -15 -22 -15 -10 0 -29 -14 -43 -31 -33 -38 -136 -83 -286
-124 -201 -54 -253 -66 -359 -79 -65 -9 -124 -20 -130 -25 -6 -5 -27 -12 -46
-14 -19 -3 44 -4 140 -2 97 1 193 8 215 15 77 22 140 38 180 44 36 6 82 22
170 61 17 8 41 17 55 20 36 10 119 59 160 94 65 56 76 69 114 145 20 42 42 78
47 82 6 3 14 16 19 28 7 19 19 24 72 31 156 19 167 23 63 22 -97 -1 -100 0
-103 22 -2 13 1 35 6 49 6 15 13 44 17 65 l6 37 72 0 c79 0 133 -19 62 -21
-33 -1 -29 -3 24 -11 74 -10 111 5 111 47 0 31 -10 36 -46 25 -17 -5 -21 -9
-11 -9 10 -1 15 -5 12 -11 -4 -6 -54 -10 -116 -10 -120 0 -134 7 -109 55 7 13
10 32 8 43 -3 11 -2 26 3 33 4 7 4 18 0 24 -10 13 -37 104 -51 170 -13 64 -29
104 -52 134 -10 13 -18 34 -18 47 0 13 -4 24 -9 24 -14 0 -25 40 -22 82 1 26
-4 42 -19 56 l-21 19 23 42 c13 23 29 52 35 64 7 12 13 30 13 39 0 9 6 21 13
25 12 7 48 128 77 258 16 69 33 269 28 321 -3 27 -13 62 -22 77 -17 25 -23 27
-88 27 -40 0 -80 -6 -96 -14 -15 -8 -46 -17 -67 -21 -65 -11 -163 -49 -285
-111 -177 -89 -210 -115 -210 -163 0 -9 -6 -25 -13 -35 -12 -17 -17 -17 -103
9 -122 38 -193 61 -234 78 -101 41 -588 48 -753 11 -156 -35 -310 -75 -328
-84 -16 -9 -27 -2 -69 43 -52 56 -184 130 -315 177 -152 55 -195 72 -195 80 0
4 -15 15 -34 24 -36 17 -89 19 -144 6z m2890 -74 c8 -11 13 -59 9 -86 -1 -8
-6 -69 -12 -135 -5 -66 -16 -140 -24 -165 -8 -25 -24 -74 -34 -110 -25 -82
-66 -186 -87 -217 l-16 -25 -24 23 c-29 27 -31 62 -5 88 10 10 27 45 37 77 10
33 24 70 31 84 7 14 13 39 13 57 0 17 5 35 10 38 6 3 10 16 10 28 0 12 7 41
15 65 16 46 25 195 12 208 -10 10 -126 -13 -154 -32 -12 -8 -35 -14 -51 -14
-27 0 -68 -15 -117 -43 -11 -6 -40 -21 -65 -33 -25 -12 -69 -41 -99 -63 -30
-23 -61 -41 -68 -41 -7 0 -13 -4 -13 -10 0 -16 -36 -12 -50 6 -11 13 -10 16 9
21 12 3 29 19 37 35 8 16 27 34 42 40 15 7 47 26 72 44 25 17 56 35 70 39 14
4 41 16 60 26 54 29 251 101 305 112 28 6 79 -4 87 -17z m-2068 -747 c22 -6
59 -15 81 -21 104 -27 213 -111 246 -190 27 -65 0 -261 -38 -275 -7 -3 -13
-10 -13 -17 0 -41 -156 -177 -217 -190 -10 -2 -34 -10 -54 -19 -79 -35 -258
-47 -354 -24 -61 15 -136 65 -163 109 -49 81 -65 203 -37 294 8 27 15 61 15
75 0 26 56 128 93 167 66 71 318 123 441 91z m1551 -16 c28 -9 62 -24 77 -35
14 -10 30 -18 35 -18 5 0 24 -16 43 -35 18 -19 37 -32 41 -29 4 2 18 -17 31
-42 13 -26 30 -49 39 -51 13 -4 16 -16 13 -56 -5 -90 -20 -166 -37 -184 -8
-10 -24 -40 -34 -68 -14 -37 -24 -51 -41 -53 -12 -2 -26 -12 -32 -22 -13 -24
-72 -60 -99 -60 -12 0 -29 -4 -39 -9 -68 -34 -178 -41 -231 -15 -18 9 -45 17
-59 18 -48 3 -152 84 -152 119 0 10 -5 15 -10 12 -18 -11 -48 37 -76 119 -30
93 -35 177 -11 221 9 17 22 41 29 55 25 49 91 100 148 116 30 8 62 18 70 23 8
4 37 9 65 10 27 1 52 5 55 8 8 8 121 -7 175 -24z m120 -653 c-3 -5 -11 -10
-16 -10 -6 0 -7 5 -4 10 3 6 11 10 16 10 6 0 7 -4 4 -10z"/>
<path d="M854 1396 c-118 -73 -153 -156 -123 -295 8 -37 23 -64 55 -100 70
-77 115 -91 251 -75 81 10 135 66 169 174 8 25 14 59 14 75 -1 71 -84 192
-151 219 -21 9 -69 18 -107 22 -60 5 -71 2 -108 -20z m155 -140 c21 -25 9 -87
-21 -109 -27 -20 -28 -20 -68 -2 -49 22 -51 42 -9 90 33 38 77 47 98 21z m68
-128 c-3 -7 -5 -2 -5 12 0 14 2 19 5 13 2 -7 2 -19 0 -25z"/>
<path d="M2444 1399 c-40 -9 -58 -24 -128 -103 -14 -16 -26 -39 -26 -51 0 -12
-3 -25 -7 -28 -11 -12 -12 -61 -1 -74 8 -10 7 -13 -2 -13 -9 0 -8 -5 3 -18 10
-10 17 -24 17 -31 0 -7 12 -26 28 -41 15 -15 37 -42 50 -59 17 -22 39 -36 78
-47 30 -9 61 -13 69 -10 7 2 16 0 19 -7 3 -9 7 -8 14 2 6 9 19 11 36 7 19 -5
24 -3 20 8 -3 8 13 32 40 57 60 59 77 102 75 195 -1 56 -6 78 -18 87 -9 7 -27
29 -41 49 -40 58 -74 79 -132 83 -29 2 -72 0 -94 -6z m110 -205 c4 -14 4 -29
1 -34 -11 -18 -60 -11 -73 10 -10 17 -9 23 7 39 25 25 57 17 65 -15z"/>
<path d="M2230 1049 c0 -5 5 -7 10 -4 6 3 10 8 10 11 0 2 -4 4 -10 4 -5 0 -10
-5 -10 -11z"/>
<path d="M2220 981 c0 -6 5 -13 10 -16 6 -3 10 1 10 9 0 9 -4 16 -10 16 -5 0
-10 -4 -10 -9z"/>
<path d="M2695 959 c-10 -15 3 -25 16 -12 7 7 7 13 1 17 -6 3 -14 1 -17 -5z"/>
<path d="M2333 923 c-22 -8 -15 -40 10 -47 42 -11 55 -7 50 14 -3 11 -13 20
-23 20 -10 0 -20 4 -22 9 -1 4 -9 6 -15 4z"/>
<path d="M2613 893 c-25 -9 -13 -23 20 -23 44 0 78 10 71 21 -5 9 -70 11 -91
2z"/>
<path d="M2670 850 c0 -5 5 -10 11 -10 5 0 7 5 4 10 -3 6 -8 10 -11 10 -2 0
-4 -4 -4 -10z"/>
<path d="M2480 840 c0 -5 5 -10 11 -10 5 0 7 5 4 10 -3 6 -8 10 -11 10 -2 0
-4 -4 -4 -10z"/>
<path d="M2272 829 c2 -7 10 -15 17 -17 8 -3 12 1 9 9 -2 7 -10 15 -17 17 -8
3 -12 -1 -9 -9z"/>
<path d="M2308 1845 c-3 -14 3 -38 14 -56 15 -24 20 -53 21 -111 1 -43 5 -78
8 -78 30 0 34 97 8 195 -22 78 -42 98 -51 50z"/>
<path d="M1135 1783 c-15 -38 -30 -72 -35 -78 -24 -29 -11 -78 18 -68 25 9 52
34 46 44 -2 4 9 38 26 76 34 74 33 93 -4 93 -20 0 -28 -10 -51 -67z"/>
<path d="M327 1082 c-42 -30 -93 -114 -128 -209 -12 -32 -25 -62 -29 -68 -4
-5 -11 -26 -15 -45 -4 -19 -14 -46 -22 -59 -9 -14 -13 -34 -9 -52 3 -16 9 -43
12 -59 11 -55 65 -72 157 -51 l37 9 0 -34 c0 -26 9 -43 43 -76 51 -51 149
-128 192 -152 17 -9 37 -21 45 -26 21 -14 208 -100 216 -100 4 0 15 -6 23 -13
9 -8 36 -21 61 -30 101 -35 136 -48 152 -57 10 -6 24 -10 32 -10 7 0 42 -9 77
-21 51 -16 97 -21 224 -24 88 -3 151 -2 140 1 -11 3 -49 13 -85 24 -36 10
-101 24 -145 30 -44 7 -100 20 -125 30 -25 10 -72 24 -105 31 -33 7 -67 18
-76 26 -8 7 -22 13 -30 13 -8 0 -64 24 -124 53 -61 30 -126 60 -145 67 -31 12
-71 36 -134 80 -58 40 -152 125 -159 144 -4 11 -15 28 -23 37 -13 15 -12 18
13 34 30 20 93 79 93 87 0 3 -9 8 -21 11 -20 5 -79 -21 -79 -35 0 -5 -8 -8
-18 -8 -9 0 -35 -12 -57 -27 -22 -15 -59 -30 -83 -33 -39 -6 -45 -4 -60 17
-11 19 -13 29 -5 42 6 9 14 31 17 48 4 17 16 39 27 49 20 18 27 40 9 29 -31
-19 14 47 84 123 50 54 40 66 -15 18 -24 -20 -46 -36 -51 -36 -13 0 14 53 38
75 47 42 120 141 116 158 -5 23 -20 21 -65 -11z"/>
<path d="M1710 893 c-83 -4 -110 -10 -110 -26 0 -30 58 -123 86 -137 16 -8 31
-16 32 -17 2 -1 -2 -19 -8 -40 -15 -43 -65 -97 -101 -107 -49 -15 -154 -60
-171 -74 -10 -8 -18 -20 -18 -27 0 -14 -92 -57 -128 -59 -40 -2 -52 -14 -52
-49 0 -67 50 -123 88 -99 10 7 9 16 -8 45 -15 26 -18 37 -9 43 7 4 17 1 23 -7
7 -8 32 -15 63 -16 43 -2 54 1 66 21 10 15 12 27 5 39 -7 13 -4 28 9 55 15 31
24 38 60 44 48 8 108 37 151 73 38 32 45 32 75 -5 14 -16 28 -30 32 -30 3 0
17 -8 32 -17 14 -9 38 -18 52 -19 44 -3 99 -31 106 -53 3 -12 12 -22 18 -23 7
0 17 -2 23 -2 6 -1 32 -13 58 -26 40 -22 48 -23 56 -10 24 38 -18 90 -72 90
-31 0 -44 6 -64 29 -13 16 -36 31 -51 34 -105 21 -114 25 -153 68 -30 34 -39
52 -40 80 0 36 23 69 48 69 7 0 12 6 12 13 0 6 9 23 20 37 26 33 25 66 -2 84
-31 19 -52 22 -128 19z"/>
<path d="M3352 628 c5 -15 128 -24 128 -10 0 11 -48 22 -97 22 -23 0 -33 -4
-31 -12z"/>
<path d="M3425 550 c-3 -5 1 -10 10 -10 9 0 13 5 10 10 -3 6 -8 10 -10 10 -2
0 -7 -4 -10 -10z"/>
<path d="M3293 503 c-73 -2 -133 -8 -133 -12 0 -10 262 -13 294 -4 15 4 16 7
5 14 -8 5 -18 8 -24 7 -5 -1 -70 -4 -142 -5z"/>
</g>
</svg>
